%TF.GenerationSoftware,KiCad,Pcbnew,7.0.2*%
%TF.CreationDate,2023-05-18T17:41:12+02:00*%
%TF.ProjectId,Schablone,53636861-626c-46f6-9e65-2e6b69636164,rev?*%
%TF.SameCoordinates,Original*%
%TF.FileFunction,Legend,Bot*%
%TF.FilePolarity,Positive*%
%FSLAX46Y46*%
G04 Gerber Fmt 4.6, Leading zero omitted, Abs format (unit mm)*
G04 Created by KiCad (PCBNEW 7.0.2) date 2023-05-18 17:41:12*
%MOMM*%
%LPD*%
G01*
G04 APERTURE LIST*
%ADD10C,0.150000*%
%ADD11C,0.120000*%
G04 APERTURE END LIST*
D10*
%TO.C,U1*%
X138879449Y-100453285D02*
X138359097Y-101073416D01*
X138359097Y-101073416D02*
X138261401Y-101115764D01*
X138261401Y-101115764D02*
X138194314Y-101121633D01*
X138194314Y-101121633D02*
X138090748Y-101096893D01*
X138090748Y-101096893D02*
X137944835Y-100974458D01*
X137944835Y-100974458D02*
X137902487Y-100876762D01*
X137902487Y-100876762D02*
X137896618Y-100809674D01*
X137896618Y-100809674D02*
X137921358Y-100706109D01*
X137921358Y-100706109D02*
X138441710Y-100085978D01*
X137032878Y-100209234D02*
X137470617Y-100576542D01*
X137251747Y-100392888D02*
X137894535Y-99626844D01*
X137894535Y-99626844D02*
X137875665Y-99797496D01*
X137875665Y-99797496D02*
X137887404Y-99931671D01*
X137887404Y-99931671D02*
X137929751Y-100029367D01*
D11*
X137875213Y-97244425D02*
X138536490Y-96689705D01*
X137758982Y-97538517D02*
X137875213Y-97244425D01*
X138536490Y-96689705D02*
X141485761Y-99164438D01*
X137306380Y-98855769D02*
X137532681Y-98197143D01*
X139566211Y-100751992D02*
X137306380Y-98855769D01*
X141485761Y-99164438D02*
X141054298Y-99911993D01*
X141054298Y-99911993D02*
X139566211Y-100751992D01*
%TD*%
M02*
