%TF.GenerationSoftware,KiCad,Pcbnew,7.0.2*%
%TF.CreationDate,2023-05-18T17:41:12+02:00*%
%TF.ProjectId,Schablone,53636861-626c-46f6-9e65-2e6b69636164,rev?*%
%TF.SameCoordinates,Original*%
%TF.FileFunction,Copper,L1,Top*%
%TF.FilePolarity,Positive*%
%FSLAX46Y46*%
G04 Gerber Fmt 4.6, Leading zero omitted, Abs format (unit mm)*
G04 Created by KiCad (PCBNEW 7.0.2) date 2023-05-18 17:41:12*
%MOMM*%
%LPD*%
G01*
G04 APERTURE LIST*
G04 Aperture macros list*
%AMHorizOval*
0 Thick line with rounded ends*
0 $1 width*
0 $2 $3 position (X,Y) of the first rounded end (center of the circle)*
0 $4 $5 position (X,Y) of the second rounded end (center of the circle)*
0 Add line between two ends*
20,1,$1,$2,$3,$4,$5,0*
0 Add two circle primitives to create the rounded ends*
1,1,$1,$2,$3*
1,1,$1,$4,$5*%
%AMRotRect*
0 Rectangle, with rotation*
0 The origin of the aperture is its center*
0 $1 length*
0 $2 width*
0 $3 Rotation angle, in degrees counterclockwise*
0 Add horizontal line*
21,1,$1,$2,0,0,$3*%
G04 Aperture macros list end*
%TA.AperFunction,ComponentPad*%
%ADD10RotRect,1.000000X1.000000X291.000000*%
%TD*%
%TA.AperFunction,ComponentPad*%
%ADD11HorizOval,1.000000X0.000000X0.000000X0.000000X0.000000X0*%
%TD*%
%TA.AperFunction,ComponentPad*%
%ADD12RotRect,1.050000X1.300000X320.000000*%
%TD*%
%TA.AperFunction,ComponentPad*%
%ADD13HorizOval,1.050000X-0.080348X-0.095756X0.080348X0.095756X0*%
%TD*%
%TA.AperFunction,Conductor*%
%ADD14C,0.800000*%
%TD*%
%TA.AperFunction,Conductor*%
%ADD15C,0.250000*%
%TD*%
G04 APERTURE END LIST*
D10*
%TO.P,J1,1,Pin_1*%
%TO.N,Net-(J1-Pin_1)*%
X144151294Y-79344873D03*
D11*
%TO.P,J1,2,Pin_2*%
%TO.N,Net-(J1-Pin_2)*%
X142965647Y-79800000D03*
%TO.P,J1,3,Pin_3*%
%TO.N,unconnected-(J1-Pin_3-Pad3)*%
X141780000Y-80255128D03*
%TO.P,J1,4,Pin_4*%
%TO.N,unconnected-(J1-Pin_4-Pad4)*%
X140594353Y-80710255D03*
%TO.P,J1,5,Pin_5*%
%TO.N,Net-(J1-Pin_5)*%
X139408705Y-81165382D03*
%TD*%
D12*
%TO.P,U1,1,VCC*%
%TO.N,Net-(J1-Pin_5)*%
X138488049Y-97758655D03*
D13*
%TO.P,U1,2,GND*%
%TO.N,Net-(J1-Pin_2)*%
X139460925Y-98574995D03*
%TO.P,U1,3,VOUT*%
%TO.N,Net-(J1-Pin_1)*%
X140433802Y-99391336D03*
%TD*%
D14*
%TO.N,Net-(J1-Pin_1)*%
X151830000Y-96110000D02*
X154800000Y-93140000D01*
X145890000Y-83860000D02*
X144151294Y-79344873D01*
X140433802Y-99165754D02*
X143489556Y-96110000D01*
X143489556Y-96110000D02*
X151830000Y-96110000D01*
X154800000Y-93140000D02*
X154800000Y-86470000D01*
X154800000Y-86470000D02*
X152180000Y-83850000D01*
X140433802Y-99391336D02*
X140433802Y-99165754D01*
X152180000Y-83850000D02*
X145890000Y-83860000D01*
%TO.N,Net-(J1-Pin_2)*%
X137650000Y-87640000D02*
X137650000Y-93000000D01*
X140450000Y-97585920D02*
X139460925Y-98574995D01*
X140450000Y-95800000D02*
X140450000Y-97585920D01*
X142965647Y-79800000D02*
X143680000Y-81940000D01*
X137650000Y-93000000D02*
X140450000Y-95800000D01*
D15*
X143010000Y-79810000D02*
X143000000Y-79820000D01*
D14*
X143680000Y-81940000D02*
X137650000Y-87640000D01*
%TO.N,Net-(J1-Pin_5)*%
X135810000Y-93960000D02*
X138488049Y-96638049D01*
X139408705Y-83041295D02*
X135810000Y-86640000D01*
X139408705Y-81165382D02*
X139408705Y-83041295D01*
X138488049Y-96638049D02*
X138488049Y-97758655D01*
X135810000Y-86640000D02*
X135810000Y-93960000D01*
%TD*%
M02*
